<?xml version="1.0" standalone="no"?><!DOCTYPE svg PUBLIC "-//W3C//DTD SVG 1.1//EN" "http://www.w3.org/Graphics/SVG/1.1/DTD/svg11.dtd"><svg t="1668692784588" class="icon" viewBox="0 0 1024 1024" version="1.1" xmlns="http://www.w3.org/2000/svg" p-id="2981" xmlns:xlink="http://www.w3.org/1999/xlink" width="200" height="200"><path d="M128.015913 287.9488c53.0432 0 96.0512-43.008 96.0512-96.0512s-43.008-96.0512-96.0512-96.0512-96.0512 43.008-96.0512 96.0512 43.008 96.0512 96.0512 96.0512z m0 448.1024c-53.0432 0-96.0512 43.008-96.0512 96.0512s43.008 96.0512 96.0512 96.0512 96.0512-43.008 96.0512-96.0512c0-53.1456-43.008-96.0512-96.0512-96.0512z" fill="#F0EEE2" p-id="2982"></path><path d="M896.015913 512m-96.0512 0a96.0512 96.0512 0 1 0 192.1024 0 96.0512 96.0512 0 1 0-192.1024 0Z" fill="#BBAA9C" p-id="2983"></path><path d="M896.015913 480.0512h-79.9744c-8.8064 0.2048-15.7696 7.5776-15.5648 16.384 0.2048 8.4992 7.0656 15.36 15.5648 15.5648H896.015913c8.8064 0.2048 16.1792-6.7584 16.384-15.5648s-6.7584-16.1792-15.5648-16.384c-0.3072-0.1024-0.512-0.1024-0.8192 0zM128.015913 832H96.067113c-8.8064-0.2048-16.1792 6.7584-16.384 15.5648s6.7584 16.1792 15.5648 16.384h32.768c8.8064-0.2048 15.7696-7.5776 15.5648-16.384-0.2048-8.4992-7.0656-15.36-15.5648-15.5648z m79.9744-640h-64c-8.8064 0.2048-15.7696 7.5776-15.5648 16.384 0.2048 8.4992 7.0656 15.36 15.5648 15.5648h64c8.8064-0.2048 15.7696-7.5776 15.5648-16.384-0.2048-8.4992-7.0656-15.36-15.5648-15.5648z" fill="#D8D5BA" p-id="2984"></path><path d="M128.015913 320c58.368 0 109.3632-39.5264 124.0064-96.0512h740.0448c17.7152 0 31.9488-14.336 31.9488-31.9488s-14.336-31.9488-31.9488-31.9488H252.022313c-17.7152-68.4032-87.4496-109.568-155.9552-91.9552S-13.603287 155.5456 4.111913 224.0512c14.5408 56.4224 65.536 95.9488 123.904 95.9488z m0-192c35.328 0 64 28.672 64 64S163.343913 256 128.015913 256s-64-28.672-64-64S92.687913 128 128.015913 128z m768 256c-58.368 0-109.3632 39.5264-124.0064 96.0512H31.964713C14.351913 480.0512 0.015913 494.2848 0.015913 512s14.336 31.9488 31.9488 31.9488h740.0448c17.7152 68.4032 87.4496 109.568 155.9552 91.9552 68.4032-17.7152 109.568-87.4496 91.9552-155.9552-14.5408-56.4224-65.536-95.9488-123.904-95.9488z m0 192c-35.328 0-64-28.672-64-64s28.672-64 64-64 64 28.672 64 64-28.672 64-64 64z m96.0512 223.9488H252.022313c-17.7152-68.4032-87.4496-109.568-155.9552-91.9552C27.561513 725.7088-13.603287 795.5456 4.111913 864.0512s87.4496 109.568 155.9552 91.9552c45.056-11.6736 80.2816-46.8992 91.9552-91.9552h740.0448c17.7152 0 31.9488-14.336 31.9488-31.9488s-14.336-32.1536-31.9488-32.1536zM128.015913 896c-35.328 0-64-28.672-64-64S92.687913 768 128.015913 768s64 28.672 64 64-28.672 64-64 64z" fill="#5F4E56" p-id="2985"></path></svg>