<?xml version="1.0" standalone="no"?><!DOCTYPE svg PUBLIC "-//W3C//DTD SVG 1.1//EN" "http://www.w3.org/Graphics/SVG/1.1/DTD/svg11.dtd"><svg t="1668350531543" class="icon" viewBox="0 0 1024 1024" version="1.1" xmlns="http://www.w3.org/2000/svg" p-id="5313" xmlns:xlink="http://www.w3.org/1999/xlink" width="200" height="200"><path d="M880.0256 143.9744c-29.696-0.1024-58.2656 11.6736-79.1552 32.768L390.656 586.9568l-22.6304 22.6304-22.6304-22.6304L223.232 464.7936c-43.7248-43.7248-114.688-43.7248-158.4128 0s-43.7248 114.688 0 158.4128L288.768 847.1552c43.7248 43.7248 114.688 43.7248 158.4128 0l512-512c43.7248-43.7248 43.7248-114.688 0-158.4128-20.992-20.992-49.5616-32.768-79.1552-32.768z" fill="#F0EEE2" p-id="5314"></path><path d="M880.0256 143.9744c-29.696-0.1024-58.2656 11.6736-79.1552 32.768l-87.9616 88.064 158.4128 158.4128 87.9616-87.9616c43.7248-43.7248 43.7248-114.688 0-158.4128-21.0944-21.0944-49.5616-32.8704-79.2576-32.8704z" fill="#BBAA9C" p-id="5315"></path><path d="M271.9744 512h-64c-8.8064 0.2048-15.7696 7.5776-15.5648 16.384 0.2048 8.4992 7.0656 15.36 15.5648 15.5648h64c8.8064-0.2048 15.7696-7.5776 15.5648-16.384-0.2048-8.4992-6.9632-15.36-15.5648-15.5648z m80.0768 224.0512h-31.9488c-8.8064 0-15.9744 7.168-15.9744 15.9744s7.168 15.9744 15.9744 15.9744h31.9488c8.8064 0 15.9744-7.168 15.9744-15.9744s-7.168-15.9744-15.9744-15.9744z m223.9488-144.0768h-31.9488c-8.8064 0-15.9744 7.168-15.9744 15.9744s7.168 15.9744 15.9744 15.9744h31.9488c8.8064 0 15.9744-7.168 15.9744-15.9744s-7.168-15.9744-15.9744-15.9744zM224.0512 640H112.0256c-8.8064-0.2048-16.1792 6.7584-16.384 15.5648s6.7584 16.1792 15.5648 16.384h112.8448c8.8064-0.2048 15.7696-7.5776 15.5648-16.384-0.2048-8.4992-7.0656-15.36-15.5648-15.5648z m559.9232-159.9488h-96.0512c-8.8064 0-15.9744 7.168-15.9744 15.9744s7.168 15.9744 15.9744 15.9744h96.0512c8.8064 0 15.9744-7.168 15.9744-15.9744s-7.0656-15.9744-15.9744-15.9744z m64-272.0768H768c-8.8064 0.2048-15.7696 7.5776-15.5648 16.384 0.2048 8.4992 7.0656 15.36 15.5648 15.5648h79.9744c8.8064-0.2048 15.7696-7.5776 15.5648-16.384-0.2048-8.4992-7.0656-15.36-15.5648-15.5648zM704 399.9744h15.9744c8.8064 0 15.9744-7.168 15.9744-15.9744s-7.168-15.9744-15.9744-15.9744h-15.9744c-8.8064 0-15.9744 7.168-15.9744 15.9744s7.168 15.9744 15.9744 15.9744z" fill="#D8D5BA" p-id="5316"></path><path d="M1024 256c0-79.5648-64.4096-143.9744-143.9744-143.9744-38.1952 0-74.8544 15.1552-101.888 42.1888L368.0256 564.3264 245.8624 442.1632c-56.2176-56.2176-147.456-56.2176-203.6736 0s-56.2176 147.456 0 203.6736l223.9488 223.9488c56.2176 56.2176 147.3536 56.2176 203.6736 0l512-512c27.0336-26.9312 42.1888-63.5904 42.1888-101.7856zM424.5504 824.5248c-31.232 31.232-81.92 31.232-113.152 0L87.4496 600.576c-31.232-31.232-31.232-81.92 0-113.152s81.92-31.232 113.152 0l167.424 167.424 356.1472-356.1472 113.152 113.152-412.7744 412.672z m512-512l-76.6976 76.6976-113.152-113.152 76.6976-76.6976c31.232-31.232 81.92-31.232 113.152 0s31.232 81.92 0 113.152z" fill="#5F4E56" p-id="5317"></path></svg>