<?xml version="1.0" standalone="no"?><!DOCTYPE svg PUBLIC "-//W3C//DTD SVG 1.1//EN" "http://www.w3.org/Graphics/SVG/1.1/DTD/svg11.dtd"><svg t="1668611423701" class="icon" viewBox="0 0 1024 1024" version="1.1" xmlns="http://www.w3.org/2000/svg" p-id="3138" xmlns:xlink="http://www.w3.org/1999/xlink" width="200" height="200"><path d="M31.9488 159.9488v320c0 212.0704 171.9296 384 384 384s384-171.9296 384-384V159.9488h-768z" fill="#F0EEE2" p-id="3139"></path><path d="M64 192H768V256H64z" fill="#BBAA9C" p-id="3140"></path><path d="M335.9744 655.9744H256c-8.8064 0-15.9744 7.168-15.9744 15.9744s7.168 15.9744 15.9744 15.9744h79.9744c8.8064 0 15.9744-7.168 15.9744-15.9744s-7.168-15.9744-15.9744-15.9744z m-95.9488-256c0 8.8064 7.168 15.9744 15.9744 15.9744h31.9488c8.8064 0 15.9744-7.168 15.9744-15.9744s-7.168-15.9744-15.9744-15.9744H256c-8.8064 0-15.9744 7.168-15.9744 15.9744z m431.9232-79.9744c0 8.8064 7.168 15.9744 15.9744 15.9744H719.872c8.8064 0 15.9744-7.168 15.9744-15.9744s-7.168-15.9744-15.9744-15.9744h-31.9488c-8.704 0-15.872 7.168-15.9744 15.9744z m-191.8976 128h96.0512c8.8064-0.2048 15.7696-7.5776 15.5648-16.384-0.2048-8.4992-7.0656-15.36-15.5648-15.5648h-96.0512c-8.8064 0.2048-15.7696 7.5776-15.5648 16.384 0.1024 8.4992 6.9632 15.36 15.5648 15.5648zM783.9744 512H671.9488c-8.8064-0.2048-16.1792 6.7584-16.384 15.5648s6.7584 16.1792 15.5648 16.384h112.8448c8.8064-0.2048 15.7696-7.5776 15.5648-16.384-0.2048-8.4992-6.9632-15.36-15.5648-15.5648z m-624.0256-15.9744h-128c-8.8064 0-15.9744 7.168-15.9744 15.9744s7.168 15.9744 15.9744 15.9744h128c8.8064 0 15.9744-7.168 15.9744-15.9744s-7.0656-15.9744-15.9744-15.9744z m528.0768-271.9744c0-8.8064-7.168-15.9744-15.9744-15.9744h-64c-8.8064 0-15.9744 7.168-15.9744 15.9744s7.168 15.9744 15.9744 15.9744h64c8.8064 0 15.9744-7.168 15.9744-15.9744zM480.0512 560.0256h-15.9744c-8.8064-0.2048-16.1792 6.7584-16.384 15.5648s6.7584 16.1792 15.5648 16.384h16.7936c8.8064-0.2048 15.7696-7.5776 15.5648-16.384-0.2048-8.4992-7.0656-15.36-15.5648-15.5648z m-80.0768-224.0512c-8.8064 0-15.9744 7.168-15.9744 15.9744s7.168 15.9744 15.9744 15.9744 15.9744-7.168 15.9744-15.9744-7.0656-15.9744-15.9744-15.9744zM256 192c0-8.8064-7.168-15.9744-15.9744-15.9744h-64c-8.8064-0.2048-16.1792 6.7584-16.384 15.5648-0.2048 8.8064 6.7584 16.1792 15.5648 16.384h64.8192c8.8064 0 15.9744-7.168 15.9744-15.9744z m335.9744 527.9744h-31.9488c-8.8064 0-15.9744 7.168-15.9744 15.9744s7.168 15.9744 15.9744 15.9744h31.9488c8.8064 0 15.9744-7.168 15.9744-15.9744s-7.0656-15.9744-15.9744-15.9744z" fill="#D8D5BA" p-id="3141"></path><path d="M832 256v-64c0-35.328-28.672-64-64-64H64C28.672 128 0 156.672 0 192V512c0 212.0704 171.9296 384 384 384h64c167.2192 0 309.4528-106.8032 362.1888-256h21.8112C937.984 640 1024 553.984 1024 448S937.984 256 832 256zM768 512c0 176.7424-143.2576 320-320 320H384C207.2576 832 64 688.7424 64 512V287.9488H768V512z m0-256H64v-64H768V256z m64 320h-5.3248c3.584-21.1968 5.3248-42.5984 5.3248-64V320c70.656 0 128 57.344 128 128s-57.344 128-128 128z" fill="#5F4E56" p-id="3142"></path></svg>