<?xml version="1.0" standalone="no"?><!DOCTYPE svg PUBLIC "-//W3C//DTD SVG 1.1//EN" "http://www.w3.org/Graphics/SVG/1.1/DTD/svg11.dtd"><svg t="1668611376425" class="icon" viewBox="0 0 1024 1024" version="1.1" xmlns="http://www.w3.org/2000/svg" p-id="2981" xmlns:xlink="http://www.w3.org/1999/xlink" width="200" height="200"><path d="M704 31.9488c-62.5664 0-122.368 20.0704-172.7488 58.0608L512 104.448l-19.2512-14.4384C442.368 52.0192 382.5664 31.9488 320 31.9488c-158.8224 0-287.9488 129.2288-287.9488 287.9488 0 168.2432 135.9872 349.7984 217.088 442.9824 120.32 138.24 235.9296 220.8768 262.9632 228.7616 27.0336-7.7824 142.6432-90.4192 262.8608-228.7616 81.1008-93.184 217.088-274.7392 217.088-442.9824 0-158.72-129.2288-287.9488-288.0512-287.9488z" fill="#F0EEE2" p-id="2982"></path><path d="M704 320m-143.9744 0a143.9744 143.9744 0 1 0 287.9488 0 143.9744 143.9744 0 1 0-287.9488 0Z" fill="#BBAA9C" p-id="2983"></path><path d="M816.0256 368.0256h-79.9744c-8.8064 0-15.9744 7.168-15.9744 15.9744s7.168 15.9744 15.9744 15.9744h79.9744c8.8064 0 15.9744-7.168 15.9744-15.9744s-7.168-15.9744-15.9744-15.9744z m-384-96.0512h-31.9488c-8.8064 0.2048-15.7696 7.5776-15.5648 16.384 0.2048 8.4992 7.0656 15.36 15.5648 15.5648h31.9488c8.8064-0.2048 15.7696-7.5776 15.5648-16.384-0.2048-8.4992-7.0656-15.36-15.5648-15.5648z m-288.0512 48.0256H31.9488c-8.8064 0.2048-15.7696 7.5776-15.5648 16.384 0.2048 8.4992 7.0656 15.36 15.5648 15.5648h112.0256c8.8064 0.2048 16.1792-6.7584 16.384-15.5648 0.2048-8.8064-6.7584-16.1792-15.5648-16.384h-0.8192z m240.0256 128h-79.9744c-8.8064 0-15.9744 7.168-15.9744 15.9744s7.168 15.9744 15.9744 15.9744H384c8.8064 0 15.9744-7.168 15.9744-15.9744s-7.168-15.9744-15.9744-15.9744zM560.0256 640c0-8.8064-7.168-15.9744-15.9744-15.9744h-48.0256c-8.8064 0.2048-15.7696 7.5776-15.5648 16.384 0.2048 8.4992 7.0656 15.36 15.5648 15.5648h48.0256c8.8064 0 15.9744-7.168 15.9744-15.9744zM352.0512 752.0256h-79.9744c-8.8064 0-15.9744 7.168-15.9744 15.9744s7.168 15.9744 15.9744 15.9744h79.9744c8.8064 0 15.9744-7.168 15.9744-15.9744s-7.168-15.9744-15.9744-15.9744z m-32.0512-576c8.8064 0 15.9744-7.168 15.9744-15.9744s-7.168-15.9744-15.9744-15.9744-15.9744 7.168-15.9744 15.9744 7.168 15.9744 15.9744 15.9744z m479.9488 512h-96.0512c-8.8064 0.2048-15.7696 7.5776-15.5648 16.384 0.2048 8.4992 7.0656 15.36 15.5648 15.5648h96.0512c8.8064-0.2048 15.7696-7.5776 15.5648-16.384-0.1024-8.4992-6.9632-15.36-15.5648-15.5648z m-223.9488 128h-31.9488c-8.8064 0-15.9744 7.168-15.9744 15.9744s7.168 15.9744 15.9744 15.9744h31.9488c8.8064 0 15.9744-7.168 15.9744-15.9744s-7.168-15.9744-15.9744-15.9744zM719.9744 256c0-8.8064-7.168-15.9744-15.9744-15.9744h-48.0256c-8.8064 0-15.9744 7.168-15.9744 15.9744s7.168 15.9744 15.9744 15.9744h48.0256c8.8064 0 15.9744-7.168 15.9744-15.9744z" fill="#D8D5BA" p-id="2984"></path><path d="M704 159.9488c-88.3712 0-159.9488 71.68-159.9488 159.9488s71.68 159.9488 159.9488 159.9488 159.9488-71.68 159.9488-159.9488-71.5776-159.9488-159.9488-159.9488z m0 288.0512c-70.656 0-128-57.344-128-128s57.344-128 128-128 128 57.344 128 128-57.344 128-128 128z m0-448C634.6752 0 567.296 22.6304 512 64.4096 456.704 22.6304 389.3248 0 320 0 143.2576 0 0 143.2576 0 320 0 640 448 1024 512 1024s512-384 512-704C1024 143.2576 880.7424 0 704 0zM512 956.8256C420.352 909.824 64 582.656 64 320c0-141.2096 114.7904-256 256-256 55.3984-0.1024 109.3632 18.0224 153.4976 51.6096l38.5024 28.9792 38.5024-28.9792c44.1344-33.4848 98.0992-51.6096 153.4976-51.6096 141.1072 0 256 114.7904 256 256 0 262.656-356.352 589.824-448 636.8256z" fill="#5F4E56" p-id="2985"></path></svg>