<?xml version="1.0" standalone="no"?><!DOCTYPE svg PUBLIC "-//W3C//DTD SVG 1.1//EN" "http://www.w3.org/Graphics/SVG/1.1/DTD/svg11.dtd"><svg t="1668612140853" class="icon" viewBox="0 0 1024 1024" version="1.1" xmlns="http://www.w3.org/2000/svg" p-id="1528" xmlns:xlink="http://www.w3.org/1999/xlink" width="200" height="200"><path d="M414.6 414.6m-370.5 0a370.5 370.5 0 1 0 741 0 370.5 370.5 0 1 0-741 0Z" fill="#FFDDD1" p-id="1529"></path><path d="M669.2 541.1c-85.5 85.5-224.1 85.5-309.5 0-66.7-66.7-66.7-174.8 0-241.5 51.7-51.7 135.4-51.7 187 0 39.6 39.6 39.6 103.8 0 143.5-30 30-78.6 30-108.6 0-22.3-22.3-22.3-58.5 0-80.7 8.5-8.5 8.5-22.3 0-30.8s-22.3-8.5-30.8 0c-39.3 39.3-39.3 103 0 142.3 47 47 123.1 47 170.2 0 56.6-56.7 56.6-148.4 0-205-68.7-68.7-179.9-68.7-248.6 0-83.7 83.7-83.7 219.3 0 303 102.5 102.5 268.6 102.5 371.1 0C825.9 446 825.9 241.7 700 115.7c-8.5-8.5-22.3-8.5-30.8 0s-8.5 22.3 0 30.8c108.9 109 108.9 285.7 0 394.6z" fill="#FFFEEE" p-id="1530"></path><path d="M785.1 414.6C785.1 210 619.2 44.1 414.6 44.1S44.1 209.9 44.1 414.6 210 785.1 414.6 785.1s370.5-165.9 370.5-370.5z m-784.6 0c0-228.7 185.4-414 414-414s414 185.4 414 414-185.4 414-414 414-414-185.4-414-414zM986.4 1017.1c8.5 8.5 22.3 8.5 30.8 0s8.5-22.3 0-30.8L711.6 680.9c-8.5-8.5-22.3-8.5-30.8 0s-8.5 22.3 0 30.8l305.6 305.4z" fill="#666666" p-id="1531"></path></svg>