<?xml version="1.0" standalone="no"?><!DOCTYPE svg PUBLIC "-//W3C//DTD SVG 1.1//EN" "http://www.w3.org/Graphics/SVG/1.1/DTD/svg11.dtd"><svg t="1668611874466" class="icon" viewBox="0 0 1024 1024" version="1.1" xmlns="http://www.w3.org/2000/svg" p-id="4080" xmlns:xlink="http://www.w3.org/1999/xlink" width="200" height="200"><path d="M984.377221 426.496c7.2704-8.0896 9.5232-19.456 5.9392-30.3104-1.536-4.5056-6.3488-15.36-18.944-17.92l-252.2112-50.4832c-26.0096-5.2224-48.2304-22.016-61.0304-46.1824L533.305221 45.7728c-6.5536-12.3904-16.9984-13.7216-21.2992-13.7216s-14.6432 1.3312-21.2992 13.7216L365.983621 281.6c-12.8 24.1664-35.0208 40.96-61.0304 46.1824L52.742021 378.2656c-12.5952 2.56-17.408 13.312-18.944 17.92-3.584 10.8544-1.4336 22.2208 5.9392 30.3104L214.022021 620.4416c18.1248 20.2752 26.624 47.5136 23.2448 74.4448l-31.744 264.704c-1.4336 12.1856 3.7888 20.1728 7.0656 23.8592 4.7104 5.3248 11.1616 8.3968 17.5104 8.3968 3.3792 0 6.7584-0.8192 9.728-2.3552L474.118021 875.008c23.8592-11.6736 51.8144-11.6736 75.6736 0l234.496 114.5856c3.072 1.536 6.3488 2.3552 9.728 2.3552 6.3488 0 12.6976-3.072 17.5104-8.3968 3.2768-3.6864 8.4992-11.6736 7.0656-23.8592l-31.744-264.704c-3.3792-27.0336 5.12-54.1696 23.2448-74.5472l174.2848-193.9456z" fill="#F0EEE2" p-id="4081"></path><path d="M512.006021 719.9744c-150.016 0-271.6672 100.2496-271.6672 224.0512 0 14.4384 1.7408 28.7744 5.12 42.8032L474.118021 875.008c23.8592-11.6736 51.8144-11.6736 75.6736 0l228.864 111.8208c3.3792-14.0288 5.12-28.4672 5.12-42.8032 0-123.6992-121.6512-224.0512-271.7696-224.0512z" fill="#BBAA9C" p-id="4082"></path><path d="M591.980421 496.0256h-79.872c-8.8064 0-15.9744 7.168-15.9744 15.9744s7.168 15.9744 15.9744 15.9744h79.872c8.8064 0 15.9744-7.168 15.9744-15.9744s-7.168-15.9744-15.9744-15.9744zM432.134021 655.9744h31.9488c8.8064-0.2048 15.7696-7.5776 15.5648-16.384-0.2048-8.4992-7.0656-15.36-15.5648-15.5648H432.134021c-8.8064 0.2048-15.7696 7.5776-15.5648 16.384 0.2048 8.4992 7.0656 15.36 15.5648 15.5648z m255.6928-192h31.9488c8.8064 0 15.9744-7.168 15.9744-15.9744s-7.168-15.9744-15.9744-15.9744h-31.9488c-8.8064 0-15.9744 7.168-15.9744 15.9744s7.168 15.9744 15.9744 15.9744z m-239.7184 384H352.262021c-8.8064 0.2048-15.7696 7.5776-15.5648 16.384 0.2048 8.4992 7.0656 15.36 15.5648 15.5648h95.8464c8.8064-0.2048 15.7696-7.5776 15.5648-16.384-0.1024-8.4992-6.9632-15.36-15.5648-15.5648zM783.775621 640H671.852421c-8.8064 0.2048-15.7696 7.5776-15.5648 16.384 0.2048 8.4992 7.0656 15.36 15.5648 15.5648h111.8208c8.8064-0.2048 15.7696-7.5776 15.5648-16.384-0.1024-8.4992-6.9632-15.36-15.4624-15.5648zM272.390021 527.9744H144.492421c-8.8064 0-15.9744 7.168-15.9744 15.9744s7.168 15.9744 15.9744 15.9744H272.390021c8.8064 0 15.9744-7.168 15.9744-15.9744s-7.168-15.9744-15.9744-15.9744z m191.6928-175.9232h63.8976c8.8064-0.2048 15.7696-7.5776 15.5648-16.384-0.2048-8.4992-7.0656-15.36-15.5648-15.5648h-63.8976c-8.8064 0.2048-15.7696 7.5776-15.5648 16.384 0.2048 8.3968 7.0656 15.2576 15.5648 15.5648z m191.7952 463.9744h-15.9744c-8.8064 0-15.9744 7.168-15.9744 15.9744s7.168 15.9744 15.9744 15.9744h15.9744c8.8064 0 15.9744-7.168 15.9744-15.9744s-7.168-15.9744-15.9744-15.9744zM352.262021 448c0-8.8064-7.168-15.9744-15.9744-15.9744s-15.9744 7.168-15.9744 15.9744 7.168 15.9744 15.9744 15.9744 15.9744-7.168 15.9744-15.9744z m239.7184-271.9744h-63.8976c-8.8064 0.2048-15.7696 7.5776-15.5648 16.384 0.2048 8.4992 7.0656 15.36 15.5648 15.5648h63.8976c8.8064-0.2048 15.7696-7.5776 15.5648-16.384-0.2048-8.4992-7.0656-15.36-15.5648-15.5648z m-79.872 576h-32.0512c-8.8064 0-15.9744 7.168-15.9744 15.9744s7.168 15.9744 15.9744 15.9744H512.006021c8.8064 0 15.9744-7.168 15.9744-15.9744s-7.0656-15.9744-15.872-15.9744z" fill="#D8D5BA" p-id="4083"></path><path d="M1008.236421 447.8976c31.1296-34.6112 13.7216-92.16-30.6176-100.9664l-252.2112-50.4832c-16.4864-3.2768-30.8224-14.2336-39.0144-29.7984L561.567621 30.8224C550.713221 10.24 531.359621 0 512.006021 0s-38.7072 10.24-49.5616 30.8224L337.618821 266.6496c-8.192 15.5648-22.528 26.4192-39.0144 29.7984L46.393221 346.9312C2.054021 355.84-15.353979 413.2864 15.775621 447.8976l174.2848 193.9456c11.9808 13.5168 17.5104 31.4368 15.2576 49.3568l-31.744 264.704c-4.5056 37.888 23.9616 68.096 56.32 68.096 8.2944 0 16.384-1.9456 23.8592-5.632l234.496-114.5856c14.9504-7.3728 32.5632-7.3728 47.5136 0l234.3936 114.5856c7.3728 3.6864 15.5648 5.632 23.8592 5.632 32.4608 0 60.928-30.208 56.32-68.096l-31.744-264.704c-2.2528-17.8176 3.3792-35.84 15.2576-49.3568l174.3872-193.9456zM512.006021 834.2528c-18.0224 0-35.7376 4.1984-51.9168 12.0832l-203.6736 99.5328v-1.8432c0-114.8928 114.4832-207.9744 255.6928-207.9744s255.6928 93.0816 255.6928 207.9744v1.9456l-203.776-99.6352c-16.1792-7.9872-33.9968-12.0832-52.0192-12.0832zM786.233221 599.04c-24.2688 27.136-35.6352 63.488-31.232 99.6352L772.102021 841.216c-46.1824-81.1008-145.2032-137.216-260.096-137.216s-214.1184 56.2176-260.1984 137.5232l17.1008-142.848c4.4032-36.1472-6.9632-72.4992-31.232-99.6352L66.258821 408.1664l244.9408-49.0496c35.5328-7.0656 65.8432-29.9008 83.0464-62.5664L512.006021 74.0352l117.76 222.5152c17.3056 32.6656 47.616 55.5008 83.0464 62.5664l244.9408 49.0496L786.233221 599.04z" fill="#5F4E56" p-id="4084"></path></svg>