<?xml version="1.0" standalone="no"?><!DOCTYPE svg PUBLIC "-//W3C//DTD SVG 1.1//EN" "http://www.w3.org/Graphics/SVG/1.1/DTD/svg11.dtd"><svg t="1668611587181" class="icon" viewBox="0 0 1024 1024" version="1.1" xmlns="http://www.w3.org/2000/svg" p-id="3452" xmlns:xlink="http://www.w3.org/1999/xlink" width="200" height="200"><path d="M512 512m-480.0512 0a480.0512 480.0512 0 1 0 960.1024 0 480.0512 480.0512 0 1 0-960.1024 0Z" fill="#F0EEE2" p-id="3453"></path><path d="M297.1648 682.496c19.456 53.5552 72.4992 117.4528 214.8352 117.4528s195.3792-63.8976 214.8352-117.4528c8.2944-22.9376 9.1136-40.7552 9.1136-42.496H287.9488s0.4096 18.432 9.216 42.496z" fill="#BBAA9C" p-id="3454"></path><path d="M175.4112 527.1552c-0.4096-8.6016-7.7824-15.1552-16.384-15.1552h-110.592c-8.8064 0-15.872 7.0656-15.872 15.872v0.7168c0.4096 8.6016 7.7824 15.1552 16.384 15.1552h110.592c8.8064 0 15.872-7.0656 15.872-15.872v-0.7168z m15.9744 49.3568h-31.232c-8.8064 0-15.872 7.0656-15.872 15.872v0.7168c0.4096 8.6016 7.7824 15.1552 16.384 15.1552h31.232c8.8064 0 15.872-7.0656 15.872-15.872v-0.7168c-0.4096-8.6016-7.7824-15.1552-16.384-15.1552z m271.9744-432.128H432.128c-8.8064 0-15.872 7.0656-15.872 15.872v0.7168c0.4096 8.6016 7.7824 15.1552 16.384 15.1552H463.872c8.8064 0 15.872-7.0656 15.872-15.872v-0.7168c-0.4096-8.6016-7.7824-15.1552-16.384-15.1552z m127.7952-48.128h-94.72c-8.8064 0-15.872 7.0656-15.872 15.872v0.7168c0.4096 8.6016 7.7824 15.1552 16.384 15.1552h94.72c8.8064 0 15.872-7.0656 15.872-15.872v-0.7168c-0.4096-8.6016-7.8848-15.1552-16.384-15.1552z m241.5616 495.616h47.104c8.8064 0 15.872-7.0656 15.872-15.872v-0.7168c-0.4096-8.6016-7.7824-15.1552-16.384-15.1552h-47.104c-8.8064 0-15.872 7.0656-15.872 15.872v0.7168c0.4096 8.6016 7.7824 15.1552 16.384 15.1552z m46.3872 192.512H784.384c-8.8064 0-15.872 7.0656-15.872 15.872v0.7168c0.4096 8.6016 7.7824 15.1552 16.384 15.1552H879.616c8.8064 0 15.872-7.0656 15.872-15.872v-0.7168c-0.4096-8.6016-7.7824-15.1552-16.384-15.1552z m-415.744 79.872H432.128c-8.8064 0-15.872 7.0656-15.872 15.872v0.7168c0.4096 8.6016 7.7824 15.1552 16.384 15.1552H463.872c8.8064 0 15.872-7.0656 15.872-15.872v-0.7168c-0.4096-8.6016-7.7824-15.1552-16.384-15.1552z" fill="#D8D5BA" p-id="3455"></path><path d="M463.9744 399.9744c0-70.656-57.344-128-128-128s-128 57.344-128 128 57.344 128 128 128 128-57.2416 128-128z m-223.9488 0c0-53.0432 43.008-96.0512 96.0512-96.0512s96.0512 43.008 96.0512 96.0512-43.008 96.0512-96.0512 96.0512-96.0512-43.008-96.0512-96.0512z m143.9744 0c0-26.5216-21.504-48.0256-48.0256-48.0256s-48.0256 21.504-48.0256 48.0256 21.504 48.0256 48.0256 48.0256 48.0256-21.504 48.0256-48.0256z m304.0256-128c-70.656 0-128 57.344-128 128s57.344 128 128 128 128-57.344 128-128-57.344-128-128-128z m0 224.0512c-53.0432 0-96.0512-43.008-96.0512-96.0512s43.008-96.0512 96.0512-96.0512 96.0512 43.008 96.0512 96.0512c-0.1024 53.0432-43.008 96.0512-96.0512 96.0512zM512 0C229.2736 0 0 229.2736 0 512s229.2736 512 512 512 512-229.2736 512-512S794.7264 0 512 0z m0 960C264.6016 960 64 759.3984 64 512S264.6016 64 512 64 960 264.6016 960 512 759.3984 960 512 960z m176.0256-607.9488c-26.5216 0-48.0256 21.504-48.0256 48.0256s21.504 48.0256 48.0256 48.0256 48.0256-21.504 48.0256-48.0256c-0.1024-26.624-21.504-48.0256-48.0256-48.0256zM736.0512 623.616H287.9488c-8.8064 0-15.9744 7.168-15.9744 15.9744 0 0.6144 0.3072 21.1968 10.1376 48.0256 18.944 52.1216 73.3184 128 229.888 128s210.944-75.8784 229.888-128c9.728-26.8288 10.0352-47.4112 10.0352-48.0256 0.1024-8.8064-7.0656-15.9744-15.872-15.9744z m-24.1664 53.8624C694.1696 726.2208 645.12 784.384 512 784.384s-182.1696-58.1632-199.7824-106.9056c-2.4576-6.8608-4.5056-13.9264-6.0416-21.0944h411.648c-1.4336 7.168-3.4816 14.2336-5.9392 21.0944z" fill="#5F4E56" p-id="3456"></path></svg>